# xmcd
#
# Track frame offsets: 
#        150
#        22625
#        47095
#        73289
#        102371
#        124173
#        153769
#        169393
#        193660
#        226123
#        255768
#        282001
#
# Disc length: 4282 seconds
#
# Revision: 0
# Processed by: cddbd v1.5.2PL0 Copyright (c) Steve Scherf et al.
# Submitted via: ExactAudioCopyFreeDBPlugin 1.0
#
DISCID=9410b80c
DTITLE=Enchantment - Enchanted Lady
DYEAR=1982
DGENRE=Funk
TTITLE0=I Know Your Hot Spot
TTITLE1=Enchnated Lady
TTITLE2=Toe Jammin'
TTITLE3=I Can't Forget You
TTITLE4=Adora
TTITLE5=Only You
TTITLE6=Your Love Is Like A Melody
TTITLE7=Peace Is What The World Needs
TTITLE8=I Know Your Hot Spot (12" Version)
TTITLE9=Only You (12" Version)
TTITLE10=Here's Your Chance (Vocal Mix)
TTITLE11=Here's Your Chance (Instrumental Mix)
EXTD=
EXTT0=
EXTT1=
EXTT2=
EXTT3=
EXTT4=
EXTT5=
EXTT6=
EXTT7=
EXTT8=
EXTT9=
EXTT10=
EXTT11=
PLAYORDER=
